<svg xmlns="http://www.w3.org/2000/svg" viewBox="0 0 512 512"><defs><clipPath id="c"><circle cx="256.0" cy="256.0" r="256.0"/></clipPath></defs><g clip-path="url(#c)">
<polygon points="256.0,256.0 317.7,274.4 276.7,308.5" fill="#23d762" stroke="#23d762" stroke-width="0.8" stroke-linejoin="round"/>
<polygon points="256.0,256.0 276.7,308.5 230.6,310.7" fill="#21ca5c" stroke="#21ca5c" stroke-width="0.8" stroke-linejoin="round"/>
<polygon points="256.0,256.0 230.6,310.7 205.3,246.5" fill="#20c55a" stroke="#20c55a" stroke-width="0.8" stroke-linejoin="round"/>
<polygon points="256.0,256.0 205.3,246.5 236.4,195.7" fill="#20c55a" stroke="#20c55a" stroke-width="0.8" stroke-linejoin="round"/>
<polygon points="256.0,256.0 236.4,195.7 292.9,193.7" fill="#23d561" stroke="#23d561" stroke-width="0.8" stroke-linejoin="round"/>
<polygon points="256.0,256.0 292.9,193.7 317.7,274.4" fill="#21cb5d" stroke="#21cb5d" stroke-width="0.8" stroke-linejoin="round"/>
<polygon points="317.7,274.4 359.3,305.6 330.9,359.7" fill="#28dc67" stroke="#28dc67" stroke-width="0.8" stroke-linejoin="round"/>
<polygon points="317.7,274.4 276.7,308.5 330.9,359.7" fill="#23d561" stroke="#23d561" stroke-width="0.8" stroke-linejoin="round"/>
<polygon points="276.7,308.5 330.9,359.7 271.4,396.2" fill="#22d360" stroke="#22d360" stroke-width="0.8" stroke-linejoin="round"/>
<polygon points="276.7,308.5 230.6,310.7 271.4,396.2" fill="#21cd5e" stroke="#21cd5e" stroke-width="0.8" stroke-linejoin="round"/>
<polygon points="230.6,310.7 271.4,396.2 196.7,358.1" fill="#29dc68" stroke="#29dc68" stroke-width="0.8" stroke-linejoin="round"/>
<polygon points="230.6,310.7 196.7,358.1 146.2,297.0" fill="#23d862" stroke="#23d862" stroke-width="0.8" stroke-linejoin="round"/>
<polygon points="230.6,310.7 205.3,246.5 146.2,297.0" fill="#21c95b" stroke="#21c95b" stroke-width="0.8" stroke-linejoin="round"/>
<polygon points="205.3,246.5 146.2,297.0 133.0,225.6" fill="#21ca5c" stroke="#21ca5c" stroke-width="0.8" stroke-linejoin="round"/>
<polygon points="205.3,246.5 133.0,225.6 162.9,174.9" fill="#20c65a" stroke="#20c65a" stroke-width="0.8" stroke-linejoin="round"/>
<polygon points="205.3,246.5 236.4,195.7 162.9,174.9" fill="#21cd5e" stroke="#21cd5e" stroke-width="0.8" stroke-linejoin="round"/>
<polygon points="236.4,195.7 162.9,174.9 220.8,142.3" fill="#21cb5d" stroke="#21cb5d" stroke-width="0.8" stroke-linejoin="round"/>
<polygon points="236.4,195.7 220.8,142.3 280.6,138.2" fill="#1fbf57" stroke="#1fbf57" stroke-width="0.8" stroke-linejoin="round"/>
<polygon points="236.4,195.7 292.9,193.7 280.6,138.2" fill="#22d260" stroke="#22d260" stroke-width="0.8" stroke-linejoin="round"/>
<polygon points="292.9,193.7 280.6,138.2 350.8,149.8" fill="#22d360" stroke="#22d360" stroke-width="0.8" stroke-linejoin="round"/>
<polygon points="292.9,193.7 350.8,149.8 394.2,243.2" fill="#22d15f" stroke="#22d15f" stroke-width="0.8" stroke-linejoin="round"/>
<polygon points="292.9,193.7 317.7,274.4 394.2,243.2" fill="#26dc65" stroke="#26dc65" stroke-width="0.8" stroke-linejoin="round"/>
<polygon points="317.7,274.4 394.2,243.2 359.3,305.6" fill="#23da63" stroke="#23da63" stroke-width="0.8" stroke-linejoin="round"/>
<polygon points="359.3,305.6 432.2,310.1 399.3,370.8" fill="#29dc68" stroke="#29dc68" stroke-width="0.8" stroke-linejoin="round"/>
<polygon points="359.3,305.6 330.9,359.7 399.3,370.8" fill="#25db65" stroke="#25db65" stroke-width="0.8" stroke-linejoin="round"/>
<polygon points="330.9,359.7 399.3,370.8 347.9,437.4" fill="#3adf74" stroke="#3adf74" stroke-width="0.8" stroke-linejoin="round"/>
<polygon points="330.9,359.7 347.9,437.4 278.8,454.3" fill="#27dc67" stroke="#27dc67" stroke-width="0.8" stroke-linejoin="round"/>
<polygon points="330.9,359.7 271.4,396.2 278.8,454.3" fill="#23d863" stroke="#23d863" stroke-width="0.8" stroke-linejoin="round"/>
<polygon points="271.4,396.2 278.8,454.3 207.3,448.6" fill="#34de70" stroke="#34de70" stroke-width="0.8" stroke-linejoin="round"/>
<polygon points="271.4,396.2 196.7,358.1 207.3,448.6" fill="#2ddd6a" stroke="#2ddd6a" stroke-width="0.8" stroke-linejoin="round"/>
<polygon points="196.7,358.1 207.3,448.6 154.5,418.2" fill="#23da63" stroke="#23da63" stroke-width="0.8" stroke-linejoin="round"/>
<polygon points="196.7,358.1 154.5,418.2 94.6,343.0" fill="#24db64" stroke="#24db64" stroke-width="0.8" stroke-linejoin="round"/>
<polygon points="196.7,358.1 146.2,297.0 94.6,343.0" fill="#20c258" stroke="#20c258" stroke-width="0.8" stroke-linejoin="round"/>
<polygon points="146.2,297.0 94.6,343.0 53.6,273.2" fill="#1fbf57" stroke="#1fbf57" stroke-width="0.8" stroke-linejoin="round"/>
<polygon points="146.2,297.0 53.6,273.2 72.3,215.4" fill="#1eba55" stroke="#1eba55" stroke-width="0.8" stroke-linejoin="round"/>
<polygon points="146.2,297.0 133.0,225.6 72.3,215.4" fill="#1fbe57" stroke="#1fbe57" stroke-width="0.8" stroke-linejoin="round"/>
<polygon points="133.0,225.6 72.3,215.4 102.1,146.7" fill="#1db050" stroke="#1db050" stroke-width="0.8" stroke-linejoin="round"/>
<polygon points="133.0,225.6 162.9,174.9 102.1,146.7" fill="#1cae4f" stroke="#1cae4f" stroke-width="0.8" stroke-linejoin="round"/>
<polygon points="162.9,174.9 102.1,146.7 171.4,87.3" fill="#1db151" stroke="#1db151" stroke-width="0.8" stroke-linejoin="round"/>
<polygon points="162.9,174.9 220.8,142.3 171.4,87.3" fill="#20c359" stroke="#20c359" stroke-width="0.8" stroke-linejoin="round"/>
<polygon points="220.8,142.3 171.4,87.3 212.6,81.0" fill="#20c359" stroke="#20c359" stroke-width="0.8" stroke-linejoin="round"/>
<polygon points="220.8,142.3 280.6,138.2 212.6,81.0" fill="#20c259" stroke="#20c259" stroke-width="0.8" stroke-linejoin="round"/>
<polygon points="280.6,138.2 212.6,81.0 311.4,57.4" fill="#1ebb55" stroke="#1ebb55" stroke-width="0.8" stroke-linejoin="round"/>
<polygon points="280.6,138.2 311.4,57.4 368.3,100.5" fill="#1eba55" stroke="#1eba55" stroke-width="0.8" stroke-linejoin="round"/>
<polygon points="280.6,138.2 350.8,149.8 368.3,100.5" fill="#22d260" stroke="#22d260" stroke-width="0.8" stroke-linejoin="round"/>
<polygon points="350.8,149.8 368.3,100.5 426.5,153.1" fill="#21cb5d" stroke="#21cb5d" stroke-width="0.8" stroke-linejoin="round"/>
<polygon points="350.8,149.8 426.5,153.1 446.9,215.6" fill="#23d862" stroke="#23d862" stroke-width="0.8" stroke-linejoin="round"/>
<polygon points="350.8,149.8 394.2,243.2 446.9,215.6" fill="#21c85b" stroke="#21c85b" stroke-width="0.8" stroke-linejoin="round"/>
<polygon points="394.2,243.2 359.3,305.6 446.9,215.6" fill="#22d461" stroke="#22d461" stroke-width="0.8" stroke-linejoin="round"/>
<polygon points="359.3,305.6 446.9,215.6 432.2,310.1" fill="#31dd6d" stroke="#31dd6d" stroke-width="0.8" stroke-linejoin="round"/>
<polygon points="432.2,310.1 536.7,314.5 507.0,394.6" fill="#3ee077" stroke="#3ee077" stroke-width="0.8" stroke-linejoin="round"/>
<polygon points="432.2,310.1 399.3,370.8 507.0,394.6" fill="#3fe077" stroke="#3fe077" stroke-width="0.8" stroke-linejoin="round"/>
<polygon points="399.3,370.8 507.0,394.6 455.0,462.4" fill="#3ee077" stroke="#3ee077" stroke-width="0.8" stroke-linejoin="round"/>
<polygon points="399.3,370.8 347.9,437.4 455.0,462.4" fill="#37de71" stroke="#37de71" stroke-width="0.8" stroke-linejoin="round"/>
<polygon points="347.9,437.4 455.0,462.4 385.3,511.9" fill="#40e078" stroke="#40e078" stroke-width="0.8" stroke-linejoin="round"/>
<polygon points="347.9,437.4 385.3,511.9 304.1,538.7" fill="#46e17c" stroke="#46e17c" stroke-width="0.8" stroke-linejoin="round"/>
<polygon points="347.9,437.4 278.8,454.3 304.1,538.7" fill="#32de6e" stroke="#32de6e" stroke-width="0.8" stroke-linejoin="round"/>
<polygon points="278.8,454.3 304.1,538.7 218.7,540.3" fill="#38df72" stroke="#38df72" stroke-width="0.8" stroke-linejoin="round"/>
<polygon points="278.8,454.3 207.3,448.6 218.7,540.3" fill="#2adc69" stroke="#2adc69" stroke-width="0.8" stroke-linejoin="round"/>
<polygon points="207.3,448.6 218.7,540.3 136.5,516.7" fill="#36de71" stroke="#36de71" stroke-width="0.8" stroke-linejoin="round"/>
<polygon points="207.3,448.6 154.5,418.2 136.5,516.7" fill="#22d260" stroke="#22d260" stroke-width="0.8" stroke-linejoin="round"/>
<polygon points="154.5,418.2 136.5,516.7 65.0,469.9" fill="#29dc68" stroke="#29dc68" stroke-width="0.8" stroke-linejoin="round"/>
<polygon points="154.5,418.2 65.0,469.9 10.5,404.1" fill="#27dc67" stroke="#27dc67" stroke-width="0.8" stroke-linejoin="round"/>
<polygon points="154.5,418.2 94.6,343.0 10.5,404.1" fill="#20c259" stroke="#20c259" stroke-width="0.8" stroke-linejoin="round"/>
<polygon points="94.6,343.0 10.5,404.1 -22.3,325.1" fill="#21c85b" stroke="#21c85b" stroke-width="0.8" stroke-linejoin="round"/>
<polygon points="94.6,343.0 53.6,273.2 -22.3,325.1" fill="#20c55a" stroke="#20c55a" stroke-width="0.8" stroke-linejoin="round"/>
<polygon points="53.6,273.2 -22.3,325.1 -30.3,240.0" fill="#20c359" stroke="#20c359" stroke-width="0.8" stroke-linejoin="round"/>
<polygon points="53.6,273.2 72.3,215.4 -30.3,240.0" fill="#1eba55" stroke="#1eba55" stroke-width="0.8" stroke-linejoin="round"/>
<polygon points="72.3,215.4 -30.3,240.0 -12.9,156.4" fill="#1cab4e" stroke="#1cab4e" stroke-width="0.8" stroke-linejoin="round"/>
<polygon points="72.3,215.4 102.1,146.7 -12.9,156.4" fill="#1caf50" stroke="#1caf50" stroke-width="0.8" stroke-linejoin="round"/>
<polygon points="102.1,146.7 -12.9,156.4 28.5,81.5" fill="#1eb653" stroke="#1eb653" stroke-width="0.8" stroke-linejoin="round"/>
<polygon points="102.1,146.7 28.5,81.5 90.0,22.2" fill="#1db351" stroke="#1db351" stroke-width="0.8" stroke-linejoin="round"/>
<polygon points="102.1,146.7 171.4,87.3 90.0,22.2" fill="#1ba34a" stroke="#1ba34a" stroke-width="0.8" stroke-linejoin="round"/>
<polygon points="171.4,87.3 90.0,22.2 166.3,-16.3" fill="#1a9d48" stroke="#1a9d48" stroke-width="0.8" stroke-linejoin="round"/>
<polygon points="171.4,87.3 212.6,81.0 166.3,-16.3" fill="#1ba34a" stroke="#1ba34a" stroke-width="0.8" stroke-linejoin="round"/>
<polygon points="212.6,81.0 166.3,-16.3 250.5,-30.7" fill="#1a9f49" stroke="#1a9f49" stroke-width="0.8" stroke-linejoin="round"/>
<polygon points="212.6,81.0 311.4,57.4 250.5,-30.7" fill="#1db251" stroke="#1db251" stroke-width="0.8" stroke-linejoin="round"/>
<polygon points="311.4,57.4 250.5,-30.7 335.3,-19.5" fill="#1ca94d" stroke="#1ca94d" stroke-width="0.8" stroke-linejoin="round"/>
<polygon points="311.4,57.4 335.3,-19.5 413.0,16.1" fill="#20c359" stroke="#20c359" stroke-width="0.8" stroke-linejoin="round"/>
<polygon points="311.4,57.4 368.3,100.5 413.0,16.1" fill="#20c459" stroke="#20c459" stroke-width="0.8" stroke-linejoin="round"/>
<polygon points="368.3,100.5 413.0,16.1 476.7,73.0" fill="#1fbc56" stroke="#1fbc56" stroke-width="0.8" stroke-linejoin="round"/>
<polygon points="368.3,100.5 426.5,153.1 476.7,73.0" fill="#21cd5d" stroke="#21cd5d" stroke-width="0.8" stroke-linejoin="round"/>
<polygon points="426.5,153.1 476.7,73.0 520.9,146.2" fill="#21cd5e" stroke="#21cd5e" stroke-width="0.8" stroke-linejoin="round"/>
<polygon points="426.5,153.1 446.9,215.6 520.9,146.2" fill="#23d762" stroke="#23d762" stroke-width="0.8" stroke-linejoin="round"/>
<polygon points="446.9,215.6 520.9,146.2 541.5,229.1" fill="#23d662" stroke="#23d662" stroke-width="0.8" stroke-linejoin="round"/>
<polygon points="446.9,215.6 432.2,310.1 541.5,229.1" fill="#23d963" stroke="#23d963" stroke-width="0.8" stroke-linejoin="round"/>
<polygon points="432.2,310.1 541.5,229.1 536.7,314.5" fill="#29dc67" stroke="#29dc67" stroke-width="0.8" stroke-linejoin="round"/>
<polygon points="90.4,198.4 121.4,183.0 114.4,240.8" fill="#141715" stroke="#141715" stroke-width="0.8" stroke-linejoin="round"/>
<polygon points="121.4,183.0 140.8,227.5 114.4,240.8" fill="#0d100e" stroke="#0d100e" stroke-width="0.8" stroke-linejoin="round"/>
<polygon points="121.4,183.0 153.8,170.8 140.8,227.5" fill="#151917" stroke="#151917" stroke-width="0.8" stroke-linejoin="round"/>
<polygon points="153.8,170.8 168.6,217.1 140.8,227.5" fill="#090a09" stroke="#090a09" stroke-width="0.8" stroke-linejoin="round"/>
<polygon points="153.8,170.8 187.3,162.0 168.6,217.1" fill="#171b18" stroke="#171b18" stroke-width="0.8" stroke-linejoin="round"/>
<polygon points="187.3,162.0 197.2,209.6 168.6,217.1" fill="#0f1210" stroke="#0f1210" stroke-width="0.8" stroke-linejoin="round"/>
<polygon points="187.3,162.0 221.4,156.7 197.2,209.6" fill="#171c19" stroke="#171c19" stroke-width="0.8" stroke-linejoin="round"/>
<polygon points="221.4,156.7 226.4,205.0 197.2,209.6" fill="#0f1110" stroke="#0f1110" stroke-width="0.8" stroke-linejoin="round"/>
<polygon points="221.4,156.7 256.0,154.9 226.4,205.0" fill="#131614" stroke="#131614" stroke-width="0.8" stroke-linejoin="round"/>
<polygon points="256.0,154.9 256.0,203.5 226.4,205.0" fill="#0d0f0e" stroke="#0d0f0e" stroke-width="0.8" stroke-linejoin="round"/>
<polygon points="256.0,154.9 290.6,156.7 256.0,203.5" fill="#141715" stroke="#141715" stroke-width="0.8" stroke-linejoin="round"/>
<polygon points="290.6,156.7 285.6,205.0 256.0,203.5" fill="#101311" stroke="#101311" stroke-width="0.8" stroke-linejoin="round"/>
<polygon points="290.6,156.7 324.7,162.0 285.6,205.0" fill="#151917" stroke="#151917" stroke-width="0.8" stroke-linejoin="round"/>
<polygon points="324.7,162.0 314.8,209.6 285.6,205.0" fill="#101311" stroke="#101311" stroke-width="0.8" stroke-linejoin="round"/>
<polygon points="324.7,162.0 358.2,170.8 314.8,209.6" fill="#161a18" stroke="#161a18" stroke-width="0.8" stroke-linejoin="round"/>
<polygon points="358.2,170.8 343.4,217.1 314.8,209.6" fill="#111412" stroke="#111412" stroke-width="0.8" stroke-linejoin="round"/>
<polygon points="358.2,170.8 390.6,183.0 343.4,217.1" fill="#181c19" stroke="#181c19" stroke-width="0.8" stroke-linejoin="round"/>
<polygon points="390.6,183.0 371.2,227.5 343.4,217.1" fill="#0d0f0e" stroke="#0d0f0e" stroke-width="0.8" stroke-linejoin="round"/>
<polygon points="390.6,183.0 421.6,198.4 371.2,227.5" fill="#191e1b" stroke="#191e1b" stroke-width="0.8" stroke-linejoin="round"/>
<polygon points="421.6,198.4 397.6,240.8 371.2,227.5" fill="#101211" stroke="#101211" stroke-width="0.8" stroke-linejoin="round"/>
<polygon points="102.4,219.6 90.4,198.4 79.0,213.1" fill="#101311" stroke="#101311" stroke-width="0.8" stroke-linejoin="round"/>
<polygon points="102.4,219.6 79.0,213.1 81.2,231.5" fill="#0e110f" stroke="#0e110f" stroke-width="0.8" stroke-linejoin="round"/>
<polygon points="102.4,219.6 81.2,231.5 95.9,243.0" fill="#0e100f" stroke="#0e100f" stroke-width="0.8" stroke-linejoin="round"/>
<polygon points="102.4,219.6 95.9,243.0 114.4,240.8" fill="#111412" stroke="#111412" stroke-width="0.8" stroke-linejoin="round"/>
<polygon points="409.6,219.6 421.6,198.4 433.0,213.1" fill="#171b18" stroke="#171b18" stroke-width="0.8" stroke-linejoin="round"/>
<polygon points="409.6,219.6 433.0,213.1 430.8,231.5" fill="#131715" stroke="#131715" stroke-width="0.8" stroke-linejoin="round"/>
<polygon points="409.6,219.6 430.8,231.5 416.1,243.0" fill="#151816" stroke="#151816" stroke-width="0.8" stroke-linejoin="round"/>
<polygon points="409.6,219.6 416.1,243.0 397.6,240.8" fill="#161a18" stroke="#161a18" stroke-width="0.8" stroke-linejoin="round"/>
<polygon points="125.9,262.9 150.2,250.7 145.5,297.4" fill="#181d1a" stroke="#181d1a" stroke-width="0.8" stroke-linejoin="round"/>
<polygon points="150.2,250.7 166.1,287.0 145.5,297.4" fill="#111412" stroke="#111412" stroke-width="0.8" stroke-linejoin="round"/>
<polygon points="150.2,250.7 175.6,241.1 166.1,287.0" fill="#161917" stroke="#161917" stroke-width="0.8" stroke-linejoin="round"/>
<polygon points="175.6,241.1 187.8,278.8 166.1,287.0" fill="#0f1211" stroke="#0f1211" stroke-width="0.8" stroke-linejoin="round"/>
<polygon points="175.6,241.1 201.9,234.1 187.8,278.8" fill="#171b19" stroke="#171b19" stroke-width="0.8" stroke-linejoin="round"/>
<polygon points="201.9,234.1 210.1,272.9 187.8,278.8" fill="#0f1110" stroke="#0f1110" stroke-width="0.8" stroke-linejoin="round"/>
<polygon points="201.9,234.1 228.8,229.9 210.1,272.9" fill="#141816" stroke="#141816" stroke-width="0.8" stroke-linejoin="round"/>
<polygon points="228.8,229.9 232.9,269.4 210.1,272.9" fill="#111412" stroke="#111412" stroke-width="0.8" stroke-linejoin="round"/>
<polygon points="228.8,229.9 256.0,228.5 232.9,269.4" fill="#1b201d" stroke="#1b201d" stroke-width="0.8" stroke-linejoin="round"/>
<polygon points="256.0,228.5 256.0,268.2 232.9,269.4" fill="#0e110f" stroke="#0e110f" stroke-width="0.8" stroke-linejoin="round"/>
<polygon points="256.0,228.5 283.2,229.9 256.0,268.2" fill="#171b19" stroke="#171b19" stroke-width="0.8" stroke-linejoin="round"/>
<polygon points="283.2,229.9 279.1,269.4 256.0,268.2" fill="#131614" stroke="#131614" stroke-width="0.8" stroke-linejoin="round"/>
<polygon points="283.2,229.9 310.1,234.1 279.1,269.4" fill="#161a18" stroke="#161a18" stroke-width="0.8" stroke-linejoin="round"/>
<polygon points="310.1,234.1 301.9,272.9 279.1,269.4" fill="#0d0f0e" stroke="#0d0f0e" stroke-width="0.8" stroke-linejoin="round"/>
<polygon points="310.1,234.1 336.4,241.1 301.9,272.9" fill="#171b18" stroke="#171b18" stroke-width="0.8" stroke-linejoin="round"/>
<polygon points="336.4,241.1 324.2,278.8 301.9,272.9" fill="#131614" stroke="#131614" stroke-width="0.8" stroke-linejoin="round"/>
<polygon points="336.4,241.1 361.8,250.7 324.2,278.8" fill="#1c211e" stroke="#1c211e" stroke-width="0.8" stroke-linejoin="round"/>
<polygon points="361.8,250.7 345.9,287.0 324.2,278.8" fill="#111412" stroke="#111412" stroke-width="0.8" stroke-linejoin="round"/>
<polygon points="361.8,250.7 386.1,262.9 345.9,287.0" fill="#1c211e" stroke="#1c211e" stroke-width="0.8" stroke-linejoin="round"/>
<polygon points="386.1,262.9 366.5,297.4 345.9,287.0" fill="#0f1110" stroke="#0f1110" stroke-width="0.8" stroke-linejoin="round"/>
<polygon points="135.7,280.2 125.9,262.9 116.5,274.9" fill="#111312" stroke="#111312" stroke-width="0.8" stroke-linejoin="round"/>
<polygon points="135.7,280.2 116.5,274.9 118.4,290.0" fill="#121513" stroke="#121513" stroke-width="0.8" stroke-linejoin="round"/>
<polygon points="135.7,280.2 118.4,290.0 130.4,299.3" fill="#101311" stroke="#101311" stroke-width="0.8" stroke-linejoin="round"/>
<polygon points="135.7,280.2 130.4,299.3 145.5,297.4" fill="#121513" stroke="#121513" stroke-width="0.8" stroke-linejoin="round"/>
<polygon points="376.3,280.2 386.1,262.9 395.5,274.9" fill="#141715" stroke="#141715" stroke-width="0.8" stroke-linejoin="round"/>
<polygon points="376.3,280.2 395.5,274.9 393.6,290.0" fill="#151917" stroke="#151917" stroke-width="0.8" stroke-linejoin="round"/>
<polygon points="376.3,280.2 393.6,290.0 381.6,299.3" fill="#121513" stroke="#121513" stroke-width="0.8" stroke-linejoin="round"/>
<polygon points="376.3,280.2 381.6,299.3 366.5,297.4" fill="#171b18" stroke="#171b18" stroke-width="0.8" stroke-linejoin="round"/>
<polygon points="158.4,322.5 176.6,313.2 174.4,350.2" fill="#171b19" stroke="#171b19" stroke-width="0.8" stroke-linejoin="round"/>
<polygon points="176.6,313.2 189.6,342.4 174.4,350.2" fill="#111412" stroke="#111412" stroke-width="0.8" stroke-linejoin="round"/>
<polygon points="176.6,313.2 195.7,305.9 189.6,342.4" fill="#1b201d" stroke="#1b201d" stroke-width="0.8" stroke-linejoin="round"/>
<polygon points="195.7,305.9 205.6,336.3 189.6,342.4" fill="#121513" stroke="#121513" stroke-width="0.8" stroke-linejoin="round"/>
<polygon points="195.7,305.9 215.4,300.6 205.6,336.3" fill="#191d1b" stroke="#191d1b" stroke-width="0.8" stroke-linejoin="round"/>
<polygon points="215.4,300.6 222.1,331.9 205.6,336.3" fill="#0e110f" stroke="#0e110f" stroke-width="0.8" stroke-linejoin="round"/>
<polygon points="215.4,300.6 235.6,297.4 222.1,331.9" fill="#191d1a" stroke="#191d1a" stroke-width="0.8" stroke-linejoin="round"/>
<polygon points="235.6,297.4 238.9,329.2 222.1,331.9" fill="#101311" stroke="#101311" stroke-width="0.8" stroke-linejoin="round"/>
<polygon points="235.6,297.4 256.0,296.3 238.9,329.2" fill="#1b1f1c" stroke="#1b1f1c" stroke-width="0.8" stroke-linejoin="round"/>
<polygon points="256.0,296.3 256.0,328.3 238.9,329.2" fill="#141715" stroke="#141715" stroke-width="0.8" stroke-linejoin="round"/>
<polygon points="256.0,296.3 276.4,297.4 256.0,328.3" fill="#171b19" stroke="#171b19" stroke-width="0.8" stroke-linejoin="round"/>
<polygon points="276.4,297.4 273.1,329.2 256.0,328.3" fill="#111412" stroke="#111412" stroke-width="0.8" stroke-linejoin="round"/>
<polygon points="276.4,297.4 296.6,300.6 273.1,329.2" fill="#1a1f1c" stroke="#1a1f1c" stroke-width="0.8" stroke-linejoin="round"/>
<polygon points="296.6,300.6 289.9,331.9 273.1,329.2" fill="#131614" stroke="#131614" stroke-width="0.8" stroke-linejoin="round"/>
<polygon points="296.6,300.6 316.3,305.9 289.9,331.9" fill="#1e2320" stroke="#1e2320" stroke-width="0.8" stroke-linejoin="round"/>
<polygon points="316.3,305.9 306.4,336.3 289.9,331.9" fill="#141715" stroke="#141715" stroke-width="0.8" stroke-linejoin="round"/>
<polygon points="316.3,305.9 335.4,313.2 306.4,336.3" fill="#1c211e" stroke="#1c211e" stroke-width="0.8" stroke-linejoin="round"/>
<polygon points="335.4,313.2 322.4,342.4 306.4,336.3" fill="#141816" stroke="#141816" stroke-width="0.8" stroke-linejoin="round"/>
<polygon points="335.4,313.2 353.6,322.5 322.4,342.4" fill="#1d221f" stroke="#1d221f" stroke-width="0.8" stroke-linejoin="round"/>
<polygon points="353.6,322.5 337.6,350.2 322.4,342.4" fill="#151917" stroke="#151917" stroke-width="0.8" stroke-linejoin="round"/>
<polygon points="166.4,336.3 158.4,322.5 150.9,332.2" fill="#131614" stroke="#131614" stroke-width="0.8" stroke-linejoin="round"/>
<polygon points="166.4,336.3 150.9,332.2 152.5,344.3" fill="#151917" stroke="#151917" stroke-width="0.8" stroke-linejoin="round"/>
<polygon points="166.4,336.3 152.5,344.3 162.3,351.8" fill="#101311" stroke="#101311" stroke-width="0.8" stroke-linejoin="round"/>
<polygon points="166.4,336.3 162.3,351.8 174.4,350.2" fill="#171c19" stroke="#171c19" stroke-width="0.8" stroke-linejoin="round"/>
<polygon points="345.6,336.3 353.6,322.5 361.1,332.2" fill="#151816" stroke="#151816" stroke-width="0.8" stroke-linejoin="round"/>
<polygon points="345.6,336.3 361.1,332.2 359.5,344.3" fill="#191d1a" stroke="#191d1a" stroke-width="0.8" stroke-linejoin="round"/>
<polygon points="345.6,336.3 359.5,344.3 349.7,351.8" fill="#181c1a" stroke="#181c1a" stroke-width="0.8" stroke-linejoin="round"/>
<polygon points="345.6,336.3 349.7,351.8 337.6,350.2" fill="#1b201d" stroke="#1b201d" stroke-width="0.8" stroke-linejoin="round"/>
</g></svg>